HIERARCHY
ROOT Pelvis
{
	OFFSET 0.000000 0.000000 0.000000
	CHANNELS 6 Xposition Yposition Zposition Xrotation Yrotation Zrotation
	JOINT LeftUpLeg_virtual
	{
		OFFSET 0.000000 0.000000 0.000000
		CHANNELS 3 Xrotation Yrotation Zrotation
		JOINT LeftUpLeg
		{
			OFFSET 18.735201 -5.666702 -4.541200
			CHANNELS 3 Xrotation Yrotation Zrotation
			JOINT LeftLeg
			{
				OFFSET -0.021200 -31.938179 0.493100
				CHANNELS 3 Xrotation Yrotation Zrotation
				JOINT LeftFoot
				{
					OFFSET 0.021200 -31.938179 -4.336299
					CHANNELS 3 Xrotation Yrotation Zrotation
					JOINT LeftToeBase
					{
						OFFSET 0.943001 -26.722000 15.023500
						CHANNELS 3 Xrotation Yrotation Zrotation
						End Site
						{
							OFFSET 0 0 0
						}
					}
				}
			}
		}
	}
	JOINT RightUpLeg_virtual
	{
		OFFSET 0.000000 0.000000 0.000000
		CHANNELS 3 Xrotation Yrotation Zrotation
		JOINT RightUpLeg
		{
			OFFSET -18.735201 -5.666702 -4.541200
			CHANNELS 3 Xrotation Yrotation Zrotation
			JOINT RightLeg
			{
				OFFSET 0.018946 -31.938133 0.493100
				CHANNELS 3 Xrotation Yrotation Zrotation
				JOINT RightFoot
				{
					OFFSET -0.018946 -31.938126 -4.336299
					CHANNELS 3 Xrotation Yrotation Zrotation
					JOINT RightToeBase
					{
						OFFSET -0.943001 -26.722004 15.023500
						CHANNELS 3 Xrotation Yrotation Zrotation
						End Site
						{
							OFFSET 0 0 0
						}
					}
				}
			}
		}
	}
	JOINT Hips_virtual
	{
		OFFSET 0.000000 0.000000 0.000000
		CHANNELS 3 Xrotation Yrotation Zrotation
		JOINT Hips
		{
			OFFSET -0.000000 -0.000000 -0.000000
			CHANNELS 3 Xrotation Yrotation Zrotation
			JOINT Spine
			{
				OFFSET 0.000000 10.199997 -0.299500
				CHANNELS 3 Xrotation Yrotation Zrotation
				JOINT Spine1
				{
					OFFSET 0.000000 11.900002 -1.516600
					CHANNELS 3 Xrotation Yrotation Zrotation
					JOINT Spine2
					{
						OFFSET 0.000000 13.600006 -2.842500
						CHANNELS 3 Xrotation Yrotation Zrotation
						JOINT Neck_virtual
						{
							OFFSET 0.000000 0.000000 0.000000
							CHANNELS 3 Xrotation Yrotation Zrotation
							JOINT Neck
							{
								OFFSET 0.000000 9.624100 -2.890100
								CHANNELS 3 Xrotation Yrotation Zrotation
								JOINT Head
								{
									OFFSET 0.000000 14.068802 -1.351900
									CHANNELS 3 Xrotation Yrotation Zrotation
									End Site
									{
										OFFSET 0 0 0
									}
								}
							}
						}
						JOINT LeftShoulder_virtual
						{
							OFFSET 0.000000 0.000000 0.000000
							CHANNELS 3 Xrotation Yrotation Zrotation
							JOINT LeftShoulder
							{
								OFFSET 15.263000 10.923401 -0.547700
								CHANNELS 3 Xrotation Yrotation Zrotation
								JOINT LeftArm
								{
									OFFSET 25.438599 -2.830597 -13.032500
									CHANNELS 3 Xrotation Yrotation Zrotation
									JOINT LeftForeArm
									{
										OFFSET 29.960503 0.000000 0.000000
										CHANNELS 3 Xrotation Yrotation Zrotation
										JOINT LeftHand
										{
											OFFSET 27.849251 0.000000 0.000000
											CHANNELS 3 Xrotation Yrotation Zrotation
											End Site
											{
												OFFSET 0 0 0
											}
										}
									}
								}
							}
						}
						JOINT RightShoulder_virtual
						{
							OFFSET 0.000000 0.000000 0.000000
							CHANNELS 3 Xrotation Yrotation Zrotation
							JOINT RightShoulder
							{
								OFFSET -15.263000 10.923401 -0.547700
								CHANNELS 3 Xrotation Yrotation Zrotation
								JOINT RightArm
								{
									OFFSET -25.438599 -2.830597 -13.032500
									CHANNELS 3 Xrotation Yrotation Zrotation
									JOINT RightForeArm
									{
										OFFSET -29.960503 0.000000 0.000000
										CHANNELS 3 Xrotation Yrotation Zrotation
										JOINT RightHand
										{
											OFFSET -27.849251 0.000000 0.000000
											CHANNELS 3 Xrotation Yrotation Zrotation
											End Site
											{
												OFFSET 0 0 0
											}
										}
									}
								}
							}
						}
					}
				}
			}
		}
	}
}
MOTION
Frames: 5
Frame Time: 0.03333333
7.048936 74.913429 -4.583916 0.000000 0.000000 0.000000 43.533420 -82.022922 44.146159 -32.603321 -16.717293 29.287680 55.996852 -9.340612 10.247557 -27.481959 1.514258 -28.444931 0.000000 0.000000 0.000000 43.533420 -82.022922 44.146159 -21.156134 11.983674 -33.400667 53.069832 6.470801 -10.067356 -38.053521 -1.635734 30.481850 0.000000 0.000000 0.000000 43.533420 -82.022922 44.146159 0.000000 0.000000 0.000000 1.319521 4.341677 3.218944 1.685963 3.692195 0.960056 0.000000 0.000000 0.000000 1.613184 3.756742 0.980636 -1.430299 3.662250 -0.519624 0.000000 0.000000 0.000000 1.613184 3.756742 0.980636 0.705582 8.677182 -8.120513 -7.703520 12.546969 -67.827795 179.999991 -62.467558 -179.999991 0.000000 0.000000 0.000000 1.613184 3.756742 0.980636 0.563285 13.344022 9.556954 -10.871308 35.898634 46.529424 -179.990470 78.734596 179.990566 0.000000 0.000000 0.000000 
6.712340 75.316399 -4.434696 0.000000 0.000000 0.000000 33.861585 -81.391703 34.309225 -32.144735 -16.471828 29.227568 54.872169 -9.205397 10.288165 -27.622170 0.310712 -28.261878 0.000000 0.000000 0.000000 33.861585 -81.391703 34.309225 -19.986660 11.254915 -33.435149 52.817013 6.747199 -10.108603 -36.137312 -1.664459 31.132163 0.000000 0.000000 0.000000 33.861585 -81.391703 34.309225 0.000000 0.000001 0.000000 1.314859 4.150604 3.450707 1.674578 3.524484 1.048239 0.000000 0.000000 0.000000 1.609791 3.584459 1.064620 -1.197268 3.583776 -0.538567 0.000000 0.000000 0.000000 1.609791 3.584459 1.064620 0.654794 7.533284 -7.402836 -5.403853 12.550870 -68.677743 -179.999991 -61.750265 179.999991 0.000000 0.000000 0.000000 1.609791 3.584459 1.064620 0.654562 13.133329 8.324375 -11.309125 35.091360 48.626856 -179.998830 78.103814 179.998830 0.000000 0.000000 0.000000 
6.174274 76.476128 -4.131882 0.000000 0.000000 0.000000 23.726697 -79.777415 24.097587 -32.934585 -15.743067 28.780163 52.380041 -9.181614 10.394484 -24.894055 -3.321823 -28.852109 0.000000 0.000000 0.000000 23.726697 -79.777415 24.097587 -18.274663 9.562562 -33.328489 51.202616 7.260623 -10.375529 -32.065730 -1.657521 31.932835 0.000000 0.000000 0.000000 23.726697 -79.777415 24.097587 0.000000 0.000000 0.000000 1.189628 4.098440 3.689152 1.555125 3.451245 1.016177 0.000000 0.000000 0.000000 1.491300 3.510694 1.023374 -1.022504 3.434159 -0.555640 0.000000 0.000000 0.000000 1.491300 3.510694 1.023374 0.633904 7.205967 -6.991784 -4.027032 9.964015 -67.472078 179.999937 -61.907018 179.999923 0.000000 0.000000 0.000000 1.491300 3.510694 1.023374 0.703595 12.600989 7.607049 -10.772621 34.147565 49.737666 179.999991 76.738951 -179.999991 0.000000 0.000000 0.000000 
5.552202 78.121506 -3.825493 0.000000 0.000000 0.000000 16.045680 -77.334974 16.394976 -34.461221 -14.507172 27.856346 48.858249 -9.147211 10.648336 -20.176509 -8.435893 -29.275994 0.000000 0.000000 0.000000 16.045680 -77.334974 16.394976 -16.899526 7.670147 -32.964402 49.394883 7.846151 -10.580114 -25.818597 -1.348359 32.603280 0.000000 0.000000 0.000000 16.045680 -77.334974 16.394976 0.000000 0.000000 0.000000 0.982265 4.138008 3.881723 1.364926 3.425545 0.933034 0.000000 0.000000 0.000000 1.299352 3.485002 0.928855 -0.859125 3.243861 -0.586672 0.000000 0.000000 0.000000 1.299352 3.485002 0.928855 0.623447 7.184073 -6.717689 -3.255301 6.222733 -65.186287 -179.999964 -62.493635 -179.999978 0.000000 0.000000 0.000000 1.299352 3.485002 0.928855 0.732048 11.989980 7.098539 -9.801465 33.018910 50.192707 179.999950 75.039962 -179.999950 0.000000 0.000000 0.000000 
4.949986 79.953850 -3.622131 0.000000 0.000000 0.000000 11.480286 -74.321112 11.799995 -37.044542 -12.827100 26.202977 44.930043 -9.030499 11.409279 -13.637471 -15.071031 -29.011795 0.000000 0.000000 0.000000 11.480286 -74.321112 11.799995 -16.425128 6.007788 -32.499065 47.838355 8.434730 -10.315011 -17.384225 -0.699991 33.083664 0.000000 0.000000 0.000000 11.480286 -74.321112 11.799995 0.000000 0.000000 0.000000 0.692351 4.307023 3.966635 1.114442 3.453956 0.841623 0.000000 0.000000 0.000000 1.046904 3.510682 0.826997 -0.686294 3.034457 -0.646387 0.000000 0.000000 0.000000 1.046904 3.510682 0.826997 0.622374 7.388864 -6.522931 -3.305168 1.831700 -62.504495 -179.999950 -63.269777 -179.999978 0.000000 0.000000 0.000000 1.046904 3.510682 0.826997 0.759108 11.455919 6.590178 -8.862485 31.696729 50.076092 -179.999677 73.298100 179.999691 0.000000 0.000000 0.000000 
